<svg viewBox="0 0 130 34" fill="none" xmlns="http://www.w3.org/2000/svg">
    <!-- Receipt-shaped "F" logomark — dark monochrome variant -->
    <path d="M2 3C2 1.34 3.34 0 5 0H23C24.66 0 26 1.34 26 3V29L23 27L20 29L17 27L14 29L11 27L8 29L5 27L2 29V3Z" fill="#1e1b4b"/>
    <path d="M8 6H20V9.5H12.5V13.5H18.5V17H12.5V24H8V6Z" fill="white"/>
    <circle cx="22" cy="5.5" r="2.5" fill="#1e1b4b"/>
    <!-- "Fatturino" logotype — Outfit Bold, converted to paths -->
    <g transform="translate(34, 25)" fill="#1e1b4b">
        <path d="M4.95 0L1.50 0L1.50-15.53L12.25-15.53L12.25-12.56L4.95-12.56L4.95-9.06L11.90-9.06L11.90-6.09L4.95-6.09L4.95 0ZM18.30 0.22Q16.83 0.22 15.67-0.51Q14.52-1.23 13.85-2.49Q13.18-3.74 13.18-5.35Q13.18-6.95 13.85-8.21Q14.52-9.46 15.67-10.19Q16.83-10.91 18.30-10.91Q19.38-10.91 20.26-10.49Q20.81-10.23 21.25-9.81L21.25-10.69L24.55-10.69L24.55 0L21.25 0L21.25-0.86Q20.83-0.46 20.26-0.20Q19.38 0.22 18.30 0.22ZM18.99-2.82Q20.06-2.82 20.72-3.53Q21.38-4.25 21.38-5.35Q21.38-6.09 21.09-6.67Q20.79-7.24 20.25-7.56Q19.71-7.88 19.01-7.88Q18.30-7.88 17.76-7.56Q17.23-7.24 16.91-6.67Q16.59-6.09 16.59-5.35Q16.59-4.62 16.90-4.05Q17.20-3.48 17.75-3.15Q18.30-2.82 18.99-2.82ZM31.81 0L28.45 0L28.45-7.83L26.03-7.83L26.03-10.69L28.45-10.69L28.45-15.11L31.81-15.11L31.81-10.69L34.23-10.69L34.23-7.83L31.81-7.83L31.81 0ZM40.33 0L36.96 0L36.96-7.83L34.54-7.83L34.54-10.69L36.96-10.69L36.96-15.11L40.33-15.11L40.33-10.69L42.75-10.69L42.75-7.83L40.33-7.83L40.33 0ZM48.97 0.24Q47.50 0.24 46.36-0.36Q45.23-0.97 44.59-2.03Q43.96-3.10 43.96-4.49L43.96-10.69L47.32-10.69L47.32-4.53Q47.32-3.98 47.51-3.59Q47.70-3.19 48.07-2.97Q48.44-2.75 48.97-2.75Q49.72-2.75 50.16-3.22Q50.60-3.70 50.60-4.53L50.60-10.69L53.97-10.69L53.97-4.51Q53.97-3.10 53.33-2.03Q52.69-0.97 51.57-0.36Q50.45 0.24 48.97 0.24ZM59.44 0L56.08 0L56.08-10.69L59.44-10.69L59.44-9.88Q60.43-10.91 62.19-10.91Q62.96-10.91 63.55-10.68Q64.13-10.45 64.57-9.97L62.57-7.44Q62.35-7.68 62.02-7.81Q61.69-7.94 61.27-7.94Q60.43-7.94 59.94-7.42Q59.44-6.91 59.44-5.87L59.44 0ZM68.82 0L65.45 0L65.45-10.69L68.82-10.69L68.82 0ZM67.14-12.17Q66.35-12.17 65.83-12.71Q65.32-13.24 65.32-14.01Q65.32-14.81 65.83-15.33Q66.35-15.86 67.14-15.86Q67.94-15.86 68.44-15.33Q68.95-14.81 68.95-14.01Q68.95-13.24 68.44-12.71Q67.94-12.17 67.14-12.17ZM81.62 0L78.25 0L78.25-6.09Q78.25-6.93 77.74-7.45Q77.22-7.96 76.43-7.96Q75.88-7.96 75.46-7.73Q75.04-7.50 74.80-7.07Q74.56-6.64 74.56-6.09L74.56 0L71.19 0L71.19-10.69L74.56-10.69L74.56-9.86Q74.91-10.16 75.35-10.41Q76.32-10.91 77.55-10.91Q78.74-10.91 79.65-10.35Q80.56-9.79 81.09-8.87Q81.62-7.94 81.62-6.84L81.62 0ZM88.92 0.24Q87.27 0.24 85.94-0.49Q84.61-1.23 83.84-2.51Q83.07-3.78 83.07-5.37Q83.07-6.95 83.84-8.21Q84.61-9.46 85.93-10.20Q87.25-10.93 88.92-10.93Q90.60-10.93 91.92-10.21Q93.24-9.48 94.01-8.22Q94.78-6.95 94.78-5.37Q94.78-3.78 94.01-2.51Q93.24-1.23 91.92-0.49Q90.60 0.24 88.92 0.24ZM88.92-2.82Q89.65-2.82 90.20-3.13Q90.75-3.45 91.05-4.04Q91.34-4.62 91.34-5.37Q91.34-6.12 91.04-6.68Q90.73-7.24 90.19-7.56Q89.65-7.88 88.92-7.88Q88.22-7.88 87.67-7.56Q87.12-7.24 86.81-6.67Q86.50-6.09 86.50-5.35Q86.50-4.62 86.81-4.04Q87.12-3.45 87.67-3.13Q88.22-2.82 88.92-2.82Z"/>
    </g>
</svg>
